<?xml version="1.0" encoding="utf-8"?>
<!-- Generator: Adobe Illustrator 21.0.0, SVG Export Plug-In . SVG Version: 6.00 Build 0)  -->
<svg version="1.1" id="图层_1" xmlns:sketch="http://www.bohemiancoding.com/sketch/ns"
	 xmlns="http://www.w3.org/2000/svg" xmlns:xlink="http://www.w3.org/1999/xlink" x="0px" y="0px" viewBox="0 0 512 512"
	 style="enable-background:new 0 0 512 512;" xml:space="preserve">
<style type="text/css">
	.st0{fill:#FFFFFF;}
	.st1{fill:#747A80;}
</style>
<title>Artboard 1</title>
<desc>Created with Sketch.</desc>
<rect id="Rectangle-1" x="0" sketch:type="MSShapeGroup" class="st0" width="512" height="512">
</rect>
<path class="st1" d="M320.9,118.5c3.1,12.5,3.4,13.5,3.1,26.3c-0.1,4.9-2.9,27.8-2.2,34.8c0.6,5.8,2.1,6.2,4.4,11
	c4,8.3,2.6,19.7,1.1,28.1c-0.8,4.6-2.6,11.1-5.3,14.8c-2.9,4.1-8.9,4.1-11.5,9c-3.8,6.9-1.6,16.6-4,24.1c-2.7,8.5-9.6,9.1-10.1,20.1
	c3.4,0.5,6.7,1,10.1,1.4c3.4,7.2,9.5,21.6,15.8,25.9c5.3,1.4,10.5,2.9,15.8,4.3c18.5,7.6,39,16.6,57.5,24.5
	c16.9,7.1,37.1,9.7,43.2,27.3c0,12,1.1,40.4,0.8,56.1H72.3c-0.3-15.7,0.8-44.1,0.8-56.1c6.1-17.7,26.3-20.2,43.2-27.3
	c18.5-7.8,39.1-16.9,57.5-24.5c5.3-1.4,10.6-2.9,15.8-4.3c6.3-4.3,12.5-18.7,15.8-25.9l7.5-1.8c-1.7-9.5-7.6-10.2-10-16.9
	c-1-10.1-1.9-20.1-2.9-30.2c0,0.5-6.9-1.3-7.8-1.8c-9.8-6.1-10-31-10.9-41.3c-0.4-4.7,6.1-8.6,4.3-17.3
	c-10.7-50.7,4.6-74.5,28.9-82.4c16.8-6.8,48.3-19.5,77.6-1.4l7.3,6.7l11.8,2C317.1,107.2,320.9,118.5,320.9,118.5z"/>
</svg>
