<?xml version="1.0" encoding="utf-8"?>
<!-- Generator: Adobe Illustrator 21.0.0, SVG Export Plug-In . SVG Version: 6.00 Build 0)  -->
<svg version="1.1" id="图层_1" xmlns="http://www.w3.org/2000/svg" xmlns:xlink="http://www.w3.org/1999/xlink" x="0px" y="0px"
	 viewBox="0 0 805 752.6" style="enable-background:new 0 0 805 752.6;" xml:space="preserve">
<style type="text/css">
	.st0{fill:#FFFFFF;}
</style>
<title>logo</title>
<g>
	<path class="st0" d="M255.6,228.9c23-35.8,42-61.2,100.5-60.9c38.7,1.9,90.6,17.9,90.6,17.9s-17.8-9.4-32.3-25.5
		C335.5,70,265,100.2,265,100.2c-42.2,14.6-52.6,47-56.1,72.6c-9.8,100.2-51.4,140.4-51.4,140.4C215,286.8,237.1,254.5,255.6,228.9z
		"/>
	<path class="st0" d="M675.1,340.1c-38.8-27.5-60-85.2-60-85.2c-2.6,6.4-6.4,19.8-8.8,29.5c-14.6,64.6-6.3,99.5-6.3,99.5
		c6.9,36.2,40.1,40.2,40.1,40.2c35.2,5.2,47.9-17,47.9-17C712.4,367.1,675.1,340.1,675.1,340.1z"/>
	<path class="st0" d="M603.1,170.1c-22.5-33.8-61.6-26.1-74.9-22.9c-75.6,22.4-118.2-5.5-118.2-5.5c8,8.9,15.8,18.2,23.4,24.2
		c24,19.3,45.5,24,63.5,30.1c26.7,7.1,57.3,19.8,69.8,61.7c6.2,26.5,22.5,82,22.5,82c2.4-22.6,5.4-58,13-78.3
		C625.4,200.7,603.1,170.1,603.1,170.1z"/>
	<path class="st0" d="M182.7,344.9c28.1-24.9,40.2-62.7,40.2-62.7c-24.7,21-51.6,34.3-73.6,45.8c-34.9,17.4-39.3,47.5-39.3,47.5
		c-7.8,33.5,23.5,59.3,23.5,59.3c56.3,43.8,65.7,80.5,65.7,80.5c4.6-43.8-6.9-68.4-15.6-88.6C174.8,406.5,152.6,373.8,182.7,344.9z"
		/>
	<path class="st0" d="M428.7,599.4c-43.3-30.2-74.9-34-99.2-33.3c-28.4,1.9-65.7,4.2-86.2-46.4c-17.6-55.5-45.1-80.1-45.1-80.1
		c9.3,27.6,11.2,53.6,9.1,68.9c-12.9,81.5,26.1,105.5,26.1,105.5c24.4,20.3,54.3,18.2,73.8,7.6C382.4,578.5,428.7,599.4,428.7,599.4
		z"/>
	<path class="st0" d="M366.5,317.5c-42.7,10-46,53.3-46,53.3c-2.4,61.9,60.9,75.1,60.9,75.1c31.4,7,62.5,13.5,87,27.1
		c32.7,18.2,51.9,40.3,51.9,40.3c-9.7-30.6-18.5-63.6-38.6-103c-22.6-45.7-45.3-69.7-45.3-69.7C406.6,306.4,366.5,317.5,366.5,317.5
		z"/>
	<path class="st0" d="M416.9,465.6c0,0,35.1,21.9,56.1,67.1c11.4,30.1,10.5,64.1-24.8,72.8c-13.9,3.4-39.3-2.4-61.1-0.2
		c-21.6,2.2-39.8,8.6-39.8,8.6c29,1.3,45,0.4,75.3,21.5c27.4,21.7,64.5,28.8,87.2,14.4c15.7-10.9,30.9-28.3,30.9-56.2
		c-0.3-21.4-4.7-37.6-18.7-58.5C486.1,481.2,416.9,465.6,416.9,465.6z"/>
</g>
</svg>
