<?xml version="1.0" encoding="utf-8"?>
<!-- Generator: Adobe Illustrator 21.0.0, SVG Export Plug-In . SVG Version: 6.00 Build 0)  -->
<svg version="1.1" id="图层_1" xmlns="http://www.w3.org/2000/svg" xmlns:xlink="http://www.w3.org/1999/xlink" x="0px" y="0px"
	 viewBox="0 0 464 126" style="enable-background:new 0 0 464 126;" xml:space="preserve">
<style type="text/css">
	.st0{fill:#2C2C2C;stroke:#282828;stroke-width:1.0023;}
</style>
<title>Artboard</title>
<desc>Created with Sketch.</desc>
<g>
	<path class="st0" d="M37.2,100.7H14.6c-2.9,0-5.4-1-7.4-3s-3-4.4-3-7.3V35.5c0-2.9,1-5.4,3-7.3c2-2,4.5-3,7.4-3h47.5l-6.7,13.4H23
		c-0.8,0-1.6,0.3-2.2,0.9c-0.7,0.6-1,1.3-1,2.2v42.3c0,0.9,0.3,1.6,1,2.2s1.4,0.9,2.2,0.9h21L37.2,100.7z M24.8,70.3l6.7-13.4h20.4
		c2.9,0,5.4,1,7.3,3c2,2,3,4.4,3,7.3v33.6H46.6V73.4c0-0.9-0.3-1.6-0.9-2.2c-0.6-0.6-1.3-0.9-2.1-0.9H24.8z"/>
	<path class="st0" d="M88.6,82.8v17.9H73.1V25.3h15.5v44.1h24.9l-6.8,13.4C106.7,82.8,88.6,82.8,88.6,82.8z M115.1,100.7l0.1-58.9
		c0-0.9-0.3-1.6-0.9-2.2c-0.6-0.6-1.4-0.9-2.2-0.9H90.6l6.8-13.4h23.1c2.9,0,5.4,1,7.4,3c2,2,3,4.4,3,7.3l-0.1,65.1H115.1z"/>
	<path class="st0" d="M191.1,100.7h-38.7c-2.9,0-5.4-1-7.3-3c-2-2-3-4.4-3-7.3V35.5c0-2.9,1-5.4,3-7.3c2-2,4.4-3,7.3-3h36.7
		c2.9,0,5.4,1,7.4,3s3,4.4,3,7.3V52h-15.5V41.9c0-0.9-0.3-1.6-0.9-2.2c-0.6-0.6-1.4-0.9-2.2-0.9h-20.1c-0.8,0-1.6,0.3-2.2,0.9
		c-0.6,0.6-0.9,1.3-0.9,2.2v42.3c0,0.9,0.3,1.6,0.9,2.2c0.6,0.6,1.4,0.9,2.2,0.9h37L191.1,100.7z"/>
	<path class="st0" d="M246.8,69.2h-21.1v31.5h-15.5V25.3h15.5v30.5h27.9L246.8,69.2z M255.9,25.3h15.5v75.4h-15.5V25.3z"/>
	<path class="st0" d="M298.5,82.8v17.9H283V25.3h15.5v44.1h24.9l-6.8,13.4C316.6,82.8,298.5,82.8,298.5,82.8z M325,100.7l0.1-58.9
		c0-0.9-0.3-1.6-0.9-2.2c-0.6-0.6-1.4-0.9-2.2-0.9h-21.5l6.8-13.4h23.1c2.9,0,5.4,1,7.4,3s3,4.4,3,7.3l-0.1,65.1H325z"/>
	<path class="st0" d="M382.8,100.7h-32.9l6.8-13.4h6.6V38.7h-10.7l6.8-13.4h32.9l-6.8,13.4h-6.7v48.6h10.8L382.8,100.7z"/>
	<path class="st0" d="M401,25.3h15.5v75.4H401V25.3z M425.9,25.3h23.6c1.5,0,2.8,0.3,4.1,0.8c1.2,0.6,2.3,1.3,3.3,2.2
		c0.9,0.9,1.7,2,2.2,3.3c0.5,1.2,0.8,2.6,0.8,4v65.1h-15.5V40.8c0-0.6-0.2-1-0.7-1.5c-0.5-0.4-1-0.6-1.5-0.6h-23L425.9,25.3z"/>
</g>
</svg>
