<?xml version="1.0" encoding="utf-8"?>
<!-- Generator: Adobe Illustrator 21.0.0, SVG Export Plug-In . SVG Version: 6.00 Build 0)  -->
<svg version="1.1" id="图层_1" xmlns="http://www.w3.org/2000/svg" xmlns:xlink="http://www.w3.org/1999/xlink" x="0px" y="0px"
	 viewBox="0 0 1350 630" style="enable-background:new 0 0 1350 630;" xml:space="preserve">
<style type="text/css">
	.st0{fill:#FFFFFF;}
</style>
<title>logo</title>
<title>logo</title>
<g>
	<g>
		<path class="st0" d="M128.4,432.5H52.9c-9.7,0-18-3.3-24.7-9.9c-6.7-6.6-10.1-14.8-10.1-24.5V214.6c0-9.7,3.4-17.9,10.1-24.5
			c6.7-6.6,15-9.9,24.7-9.9h159L189.7,225H80.7c-2.8,0-5.3,1-7.5,3c-2.2,2-3.3,4.5-3.3,7.5v141.6c0,3,1.1,5.5,3.3,7.5
			c2.2,2,4.7,3,7.5,3H151L128.4,432.5z M87,330.5l22.3-44.9h68.2c9.7,0,17.9,3.3,24.5,9.9c6.6,6.6,9.9,14.8,9.9,24.5v112.4h-52.2
			v-91.5c0-3-1-5.5-3-7.5c-2-2-4.4-3-7.1-3H87z"/>
		<path class="st0" d="M349,387.6l-22.6,44.9h-47c-9.7,0-17.9-3.3-24.5-9.9c-6.6-6.6-9.9-14.8-9.9-24.5V290.5c0-9.7,3.3-18,9.9-24.7
			c6.6-6.7,14.8-10.1,24.5-10.1h149.3l-22.6,45.2h-98.5c-3,0-5.6,1-7.7,3c-2.1,2-3.1,4.3-3.1,7.1v66.1c0,3,1,5.5,3.1,7.5
			c2.1,2,4.6,3,7.7,3H349z M408.6,316.2v57.4c0,4.6,1.4,8.1,4.2,10.4c2.8,2.3,6.5,3.5,11.1,3.5h13.6l-22.3,44.9h-24
			c-9.7,0-17.9-3.3-24.5-9.9c-6.6-6.6-9.9-14.8-9.9-24.5v-81.8H408.6z"/>
		<path class="st0" d="M608,432.5H492.4c-9.7,0-17.9-3.3-24.5-9.9c-6.6-6.6-9.9-14.8-9.9-24.5V290.1c0-9.7,3.3-17.9,9.9-24.5
			c6.6-6.6,14.8-9.9,24.5-9.9h98.5c9.7,0,18,3.3,24.7,9.9c6.7,6.6,10.1,14.8,10.1,24.5v37.6h-52.2V311c0-3-1-5.5-3.1-7.5
			c-2.1-2-4.5-3-7.3-3h-42.8c-2.8,0-5.2,1-7.3,3c-2.1,2-3.1,4.5-3.1,7.5v66.1c0,3,1,5.5,3.1,7.5c2.1,2,4.5,3,7.3,3h110L608,432.5z"
			/>
		<path class="st0" d="M656.7,162.8h51.9v269.7h-51.9V162.8z M736,255.7h60.9c4.6,0,9,0.9,13.2,2.8c4.2,1.9,7.8,4.4,11,7.5
			c3.1,3.1,5.6,6.8,7.5,11c1.9,4.2,2.8,8.7,2.8,13.6v142h-52.2V307.9c0-1.9-0.7-3.5-2.1-4.9c-1.4-1.4-3-2.1-4.9-2.1h-58.8L736,255.7
			z"/>
		<path class="st0" d="M964.6,387.6L942,432.5h-47c-9.7,0-17.9-3.3-24.5-9.9c-6.6-6.6-9.9-14.8-9.9-24.5V290.5
			c0-9.7,3.3-18,9.9-24.7c6.6-6.7,14.8-10.1,24.5-10.1h149.3l-22.6,45.2h-98.5c-3,0-5.6,1-7.7,3c-2.1,2-3.1,4.3-3.1,7.1v66.1
			c0,3,1,5.5,3.1,7.5c2.1,2,4.6,3,7.7,3H964.6z M1024.2,316.2v57.4c0,4.6,1.4,8.1,4.2,10.4c2.8,2.3,6.5,3.5,11.1,3.5h13.6
			l-22.3,44.9h-24c-9.7,0-17.9-3.3-24.5-9.9c-6.6-6.6-9.9-14.8-9.9-24.5v-81.8H1024.2z"/>
		<path class="st0" d="M1074.3,233v-44.2h51.9V233H1074.3z M1074.3,255.7h51.9v176.8h-51.9V255.7z"/>
		<path class="st0" d="M1158.8,255.7h51.9v176.4h-51.9V255.7z M1244.1,255.7h54.3c9.7,0,18,3.4,24.7,10.1c6.7,6.7,10.1,15,10.1,24.7
			v141.6h-51.9V307.9c0-1.9-0.8-3.5-2.3-4.9c-1.5-1.4-3.2-2.1-5-2.1h-52.5L1244.1,255.7z"/>
	</g>
</g>
</svg>
